<?xml version="1.0" encoding="utf-8"?>
<!-- Generator: Adobe Illustrator 16.0.3, SVG Export Plug-In . SVG Version: 6.00 Build 0)  -->
<!DOCTYPE svg PUBLIC "-//W3C//DTD SVG 1.1//EN" "http://www.w3.org/Graphics/SVG/1.1/DTD/svg11.dtd">
<svg version="1.1" id="Layer_1" xmlns="http://www.w3.org/2000/svg" xmlns:xlink="http://www.w3.org/1999/xlink" x="0px" y="0px"
	 width="112px" height="119.016px" viewBox="911.468 0 112 119.016" enable-background="new 911.468 0 112 119.016"
	 xml:space="preserve">
<g>
	<path fill="#09FAC0" d="M967.468,9.088c-27.846,0-50.42,22.573-50.42,50.42c0,7.004,1.431,13.674,4.013,19.736l20.33-20.33
		l27.853,27.853l-19.82,19.821c5.604,2.15,11.685,3.34,18.045,3.34c27.847,0,50.42-22.574,50.42-50.42
		C1017.888,31.661,995.314,9.088,967.468,9.088z"/>
	<path fill="#B34D43" d="M968.877,82.868L945.48,59.471c-1.226-1.226-1.226-3.23,0-4.457l-7.798,7.798
		c-1.227,1.227-1.227,3.231,0,4.458l23.396,23.396c1.227,1.226,3.231,1.226,4.455,0l7.8-7.799
		C972.107,84.094,970.104,84.094,968.877,82.868z"/>
	<path fill="#F5F5F5" d="M966.093,85.653l-23.396-23.396c-1.227-1.227-1.227-3.23,0-4.456l-2.229,2.228
		c-1.227,1.226-1.227,3.23,0,4.457l23.396,23.396c1.227,1.227,3.232,1.227,4.457,0l2.228-2.229
		C969.322,86.88,967.317,86.88,966.093,85.653z"/>
	<path fill="#406A80" d="M991.159,65.042l17.827-17.826c1.226-1.226,1.226-3.23,0-4.456l-23.397-23.396
		c-1.226-1.226-3.23-1.226-4.455,0l-17.827,17.826L991.159,65.042z"/>
	<g>
		<path fill="#395F73" d="M1008.986,42.76l-3.15-3.151c1.226,1.227,1.226,3.23-0.001,4.457L988.009,61.89l3.15,3.151l17.827-17.826
			C1010.212,45.99,1010.212,43.985,1008.986,42.76z"/>
		<path fill="#395F73" d="M1008.986,42.76l-23.397-23.396c-1.226-1.226-3.23-1.226-4.455,0l-1.115,1.114
			c1.228-1.227,3.232-1.227,4.457,0l23.396,23.396c1.228,1.227,1.228,3.231,0,4.457l1.115-1.114
			C1010.212,45.99,1010.212,43.985,1008.986,42.76z"/>
	</g>
	<path fill="#CC584C" d="M963.307,37.189L945.48,55.014c-1.226,1.227-1.226,3.231,0,4.457l23.396,23.396
		c1.226,1.227,3.231,1.227,4.457,0l17.825-17.826L963.307,37.189z"/>
	<path fill="#BF5347" d="M988.009,61.89l-17.826,17.826c-1.227,1.226-3.231,1.226-4.457,0l3.151,3.151
		c1.226,1.226,3.231,1.226,4.457,0l17.825-17.826L988.009,61.89z"/>
</g>
</svg>
