<?xml version="1.0" encoding="utf-8"?>
<!-- Generator: Adobe Illustrator 16.0.3, SVG Export Plug-In . SVG Version: 6.00 Build 0)  -->
<!DOCTYPE svg PUBLIC "-//W3C//DTD SVG 1.1//EN" "http://www.w3.org/Graphics/SVG/1.1/DTD/svg11.dtd">
<svg version="1.1" id="Layer_1" xmlns="http://www.w3.org/2000/svg" xmlns:xlink="http://www.w3.org/1999/xlink" x="0px" y="0px"
	 width="112px" height="119.016px" viewBox="394.481 0 112 119.016" enable-background="new 394.481 0 112 119.016"
	 xml:space="preserve">
<g>
	<g>
		<g>
			<g>
				<g>
					<path fill="#808080" d="M484.459,75.433c-11.939,13.018-46.582,29.596-59.602,17.645c-13.006-11.939,0.529-47.876,12.48-60.905
						c11.939-13.007,32.172-13.892,45.189-1.941C495.535,42.181,496.408,62.416,484.459,75.433z"/>
				</g>
				<g opacity="0.7">
					<path fill="#656565" d="M497.811,73.924c-4.281,16.459-29.391,24.17-56.105,17.246c-26.715-6.936-44.91-25.885-40.641-42.344
						c4.262-16.458,29.381-24.181,56.096-17.257C483.887,38.514,502.072,57.475,497.811,73.924z"/>
				</g>
				<g opacity="0.7">
					<path fill="#656565" d="M494.338,58.554c-2.783-0.582-7.916-3.991-7.334-6.773c0.572-2.783,6.654-3.883,9.438-3.3
						c2.771,0.583,4.551,3.3,3.98,6.083C499.85,57.346,497.121,59.136,494.338,58.554z"/>
				</g>
				<g opacity="0.7">
					<path fill="#808080" d="M402.867,72.013c-0.508-2.793,0.732-8.844,3.525-9.35c2.795-0.508,6.084,4.723,6.59,7.518
						c0.496,2.781-1.348,5.467-4.141,5.975C406.049,76.652,403.373,74.797,402.867,72.013z"/>
				</g>
			</g>
			<g opacity="0.5">
				<g>
					<path fill="#858585" d="M420.123,48.653c0,17.667,14.313,53.312,31.979,53.312c17.668,0,31.98-35.645,31.98-53.312
						c0-17.667-14.313-31.99-31.98-31.99C434.436,16.663,420.123,30.986,420.123,48.653z"/>
				</g>
				<g opacity="0.7">
					<path fill="#656565" d="M411.313,38.514c-7.982,15.013,5.305,37.685,29.682,50.649c24.363,12.953,50.594,11.291,58.574-3.723
						c7.971-15.012-5.316-37.673-29.691-50.637C445.512,21.84,419.293,23.501,411.313,38.514z"/>
				</g>
				<g>
					<path fill="#CBCBCB" d="M399.08,42.656c0,27.568,22.348,49.904,49.916,49.904c27.557,0,49.904-22.336,49.904-49.904
						c0-27.568-22.348-7.442-49.904-7.442C421.428,35.214,399.08,15.088,399.08,42.656z"/>
				</g>
				<g opacity="0.7">
					<path fill="#656565" d="M424.254,29.53c2.438,1.456,8.543,2.405,9.998-0.032c1.445-2.427-2.297-7.334-4.734-8.801
						c-2.438-1.445-5.588-0.647-7.043,1.79C421.029,24.925,421.816,28.074,424.254,29.53z"/>
				</g>
				<g opacity="0.7">
					<path fill="#858585" d="M482.549,101.308c2.266-1.715,5.447-7.012,3.732-9.275c-1.715-2.256-7.68-0.627-9.934,1.088
						c-2.264,1.715-2.707,4.939-0.992,7.195C477.07,102.58,480.295,103.023,482.549,101.308z"/>
				</g>
			</g>
		</g>
		<path fill="#04599E" d="M496.301,58.554c2.006-0.356,3.689-1.877,4.121-3.991c0.441-2.114-0.496-4.185-2.18-5.317
			c0.291-2.179,0.658-4.335,0.658-6.59c0-15.294-6.881-15.898-17.699-13.417c-2.805-2.308-5.846-4.142-9.092-5.36
			c-5.49-4.444-12.393-7.216-20.008-7.216c-7.451,0-14.215,2.653-19.65,6.924c-0.949-1.229-2.006-2.33-2.934-2.89
			c-2.438-1.445-5.588-0.647-7.043,1.79c-1.219,2.06-0.777,4.573,0.842,6.191c-1.111,0.432-2.266,0.809-3.279,1.359
			c-12.662-3.257-20.957-4.142-20.957,12.619c0,3.991,0.594,7.83,1.488,11.562c0.088,3.754,1.295,7.528,3.322,11.217
			c-0.928,2.113-1.326,4.896-1.023,6.578c0.506,2.783,3.182,4.639,5.975,4.143c0.938-0.172,1.703-0.646,2.373-1.23
			c2.695,3.15,5.674,6.041,9.059,8.436c0.713,3.883,2.008,7.355,4.584,9.717c3.797,3.484,9.471,4.498,15.855,3.916
			c3.537,3.063,7.377,4.971,11.389,4.971c4.078,0,7.949-1.951,11.531-5.08c3.742,0.627,7.355,0.949,10.795,0.863
			c0.098,0.906,0.346,1.791,0.928,2.568c1.715,2.264,4.939,2.707,7.193,0.992c1.371-1.037,2.945-3.344,3.711-5.545
			c5.9-1.994,10.668-5.35,13.309-10.322C503.668,77.72,502.072,67.98,496.301,58.554z"/>
		<path opacity="0.7" fill="#04599E" d="M496.301,58.554c2.006-0.356,3.689-1.877,4.121-3.991c0.441-2.114-0.496-4.185-2.18-5.317
			c0.291-2.179,0.658-4.335,0.658-6.59c0-15.294-6.881-15.898-17.699-13.417c-2.805-2.308-5.846-4.142-9.092-5.36
			c-5.49-4.444-12.393-7.216-20.008-7.216c-7.451,0-14.215,2.653-19.65,6.924c-0.949-1.229-2.006-2.33-2.934-2.89
			c-2.438-1.445-5.588-0.647-7.043,1.79c-1.219,2.06-0.777,4.573,0.842,6.191c-1.111,0.432-2.266,0.809-3.279,1.359
			c-12.662-3.257-20.957-4.142-20.957,12.619c0,3.991,0.594,7.83,1.488,11.562c0.088,3.754,1.295,7.528,3.322,11.217
			c-0.928,2.113-1.326,4.896-1.023,6.578c0.506,2.783,3.182,4.639,5.975,4.143c0.938-0.172,1.703-0.646,2.373-1.23
			c2.695,3.15,5.674,6.041,9.059,8.436c0.713,3.883,2.008,7.355,4.584,9.717c3.797,3.484,9.471,4.498,15.855,3.916
			c3.537,3.063,7.377,4.971,11.389,4.971c4.078,0,7.949-1.951,11.531-5.08c3.742,0.627,7.355,0.949,10.795,0.863
			c0.098,0.906,0.346,1.791,0.928,2.568c1.715,2.264,4.939,2.707,7.193,0.992c1.371-1.037,2.945-3.344,3.711-5.545
			c5.9-1.994,10.668-5.35,13.309-10.322C503.668,77.72,502.072,67.98,496.301,58.554z"/>
	</g>
	<g>
		<path fill="#FFFFFF" d="M441.068,47.229h5.631v-2.826c0-3.214,0.322-5.619,0.98-7.205c0.701-1.575,1.963-2.804,3.809-3.818
			c1.822-1.025,4.152-1.488,6.967-1.488c2.879,0,5.674,0.367,8.424,1.24l-1.381,7.064c-1.586-0.399-3.15-0.561-4.648-0.561
			c-1.436,0-2.471,0.345-3.084,1.057c-0.67,0.668-0.961,1.952-0.961,3.883v2.653h7.539v8.014h-7.539v30.198h-10.105V55.243h-5.631
			V47.229z"/>
	</g>
</g>
</svg>
