<?xml version="1.0" encoding="utf-8"?>
<!-- Generator: Adobe Illustrator 16.0.3, SVG Export Plug-In . SVG Version: 6.00 Build 0)  -->
<!DOCTYPE svg PUBLIC "-//W3C//DTD SVG 1.1//EN" "http://www.w3.org/Graphics/SVG/1.1/DTD/svg11.dtd">
<svg version="1.1" id="Layer_1" xmlns="http://www.w3.org/2000/svg" xmlns:xlink="http://www.w3.org/1999/xlink" x="0px" y="0px"
	 width="112px" height="119.016px" viewBox="656.968 0 112 119.016" enable-background="new 656.968 0 112 119.016"
	 xml:space="preserve">
<g>
	<circle fill="#D1A1B5" cx="712.968" cy="59.507" r="50.42"/>
	<path fill="#FFF082" d="M722.867,60.582c0,0-42.291,13.139-48.548-0.375c0,0-1.126-3.628,2.502-7.757
		c4.384-4.988-6.005-1.752-9.509,3.754c-2.135,3.355-4.88,11.511,8.133,16.642c11.636,4.586,37.537,4.879,57.682-5.506
		L722.867,60.582z"/>
	<path d="M722.703,70.451c-2.498,0.742-5.083,1.4-7.683,1.957c-11.968,2.559-23.646,2.865-32.882,0.861
		c-4.402-0.955-7.984-2.377-10.648-4.229c-2.613-1.816-4.2-3.963-4.717-6.379c-0.593-2.773,0.238-5.779,2.471-8.93
		c2.246-3.173,5.89-6.382,10.536-9.282c0.657-0.41,0.856-1.275,0.446-1.933s-1.275-0.856-1.933-0.447
		c-10.536,6.578-15.736,14.298-14.264,21.18c1.296,6.061,7.516,10.594,17.514,12.762c4.216,0.914,8.908,1.369,13.889,1.369
		c6.382,0,13.238-0.746,20.175-2.229c2.671-0.572,5.326-1.248,7.895-2.012c0.742-0.221,1.165-1.002,0.944-1.744
		C724.227,70.652,723.446,70.228,722.703,70.451z"/>
	<path d="M684.581,41.573c0.211,0,0.424-0.048,0.625-0.148c0.738-0.368,1.502-0.733,2.271-1.086
		c0.705-0.322,1.014-1.154,0.691-1.859c-0.322-0.704-1.155-1.014-1.859-0.691c-0.797,0.365-1.589,0.744-2.355,1.127
		c-0.694,0.346-0.975,1.188-0.629,1.881C683.57,41.289,684.066,41.573,684.581,41.573z"/>
	<path d="M728.119,32.148c0.061,0,0.121-0.004,0.183-0.012c0.532-0.069,1.061-0.133,1.572-0.19c0.77-0.086,1.324-0.779,1.238-1.55
		c-0.086-0.77-0.777-1.324-1.55-1.238c-0.527,0.059-1.073,0.124-1.621,0.196c-0.769,0.099-1.311,0.803-1.211,1.571
		C726.821,31.632,727.425,32.148,728.119,32.148z"/>
	<path d="M672.731,60.76c1.122,3.748,5.516,6.133,12.706,6.898c1.643,0.176,3.415,0.262,5.294,0.262
		c5.604,0,12.148-0.77,18.967-2.254c0.757-0.164,1.236-0.912,1.071-1.668c-0.164-0.758-0.911-1.238-1.669-1.074
		c-8.818,1.922-17.116,2.611-23.366,1.945c-5.806-0.619-9.565-2.41-10.315-4.915c-0.881-2.941,2.248-7.296,8.37-11.65
		c6.711-4.773,16.253-9.153,26.867-12.333c3.935-1.179,7.879-2.148,11.725-2.883c0.761-0.146,1.26-0.88,1.114-1.641
		c-0.145-0.762-0.88-1.259-1.641-1.115c-3.938,0.752-7.978,1.744-12.004,2.95c-10.899,3.267-20.733,7.789-27.688,12.735
		C674.801,51.253,671.451,56.49,672.731,60.76z"/>
	<path fill="#BC0748" d="M740.176,41.091c5.698-2.737,11.924,0.16,14.646,5.826c3.602,7.497-1.058,15.913-8.065,32.086
		c-16.172-4.412-26.679-5.752-30.443-13.59c-2.722-5.666-1.091-12.335,4.609-15.075c7.315-3.514,13.634,3.72,13.634,3.72
		S732.858,44.606,740.176,41.091z"/>
	<path d="M746.323,80.592c0.396,0.107,0.799,0.063,1.146-0.105c0.346-0.166,0.635-0.453,0.798-0.828
		c7.063-16.301,12-25.205,8.038-33.454c-3.135-6.525-10.352-9.714-16.841-6.597c-4.263,2.048-6.347,6.072-6.677,10.769
		c-3.865-2.672-8.31-3.57-12.578-1.52c-4.969,2.386-7.575,7.601-6.643,13.286c0.147,0.896,0.993,1.504,1.891,1.357
		c0.897-0.148,1.505-0.994,1.357-1.893c-0.69-4.206,1.2-8.046,4.819-9.785c4.231-2.032,9.005,0.299,11.683,3.318
		c0.486,0.558,1.285,0.722,1.951,0.401c0.667-0.32,1.038-1.046,0.907-1.774c-0.015-0.082-1.404-8.255,4.713-11.194
		c4.643-2.229,9.995-0.057,12.45,5.056c3.17,6.598-0.995,14.453-7.524,29.416c-9.591-2.57-16.956-4.084-21.951-6.627
		c-0.81-0.412-1.8-0.09-2.213,0.719c-0.412,0.811-0.09,1.801,0.72,2.215C727.999,76.219,735.915,77.752,746.323,80.592z"/>
	<path d="M717.186,66.39c-0.818,0.395-1.164,1.379-0.771,2.197s1.377,1.162,2.195,0.77c0.819-0.393,1.164-1.377,0.771-2.195
		C718.988,66.344,718.005,65.998,717.186,66.39z"/>
	<g>
		<g>
			<circle fill="#FEA832" cx="728.6" cy="101.877" r="2.547"/>
			<circle fill="#FEA832" cx="718.409" cy="81.498" r="2.547"/>
			<path fill="#FEA832" d="M715.99,96.59c0,1.426-1.12,2.547-2.547,2.547h-2.548v2.547c0,1.428-1.12,2.549-2.547,2.549
				s-2.548-1.121-2.548-2.549v-2.547h-2.547c-1.427,0-2.547-1.121-2.547-2.547s1.12-2.547,2.547-2.547h2.547v-2.547
				c0-1.428,1.121-2.547,2.548-2.547s2.547,1.119,2.547,2.547v2.547h2.548C714.87,94.043,715.99,95.164,715.99,96.59z"/>
		</g>
		<path fill="#FE9923" d="M715.99,96.59c0,1.426-1.12,2.547-2.547,2.547h-2.548v2.547c0,1.428-1.12,2.549-2.547,2.549V88.947
			c1.427,0,2.547,1.119,2.547,2.547v2.547h2.548C714.87,94.043,715.99,95.164,715.99,96.59z"/>
	</g>
	<g>
		<path fill="#FEA832" d="M708.326,22.502c0,1.501-1.18,2.68-2.68,2.68h-2.681v2.681c0,1.501-1.179,2.681-2.68,2.681
			c-1.502,0-2.681-1.18-2.681-2.681v-2.681h-2.681c-1.501,0-2.68-1.179-2.68-2.68s1.179-2.681,2.68-2.681h2.681v-2.68
			c0-1.502,1.179-2.681,2.681-2.681c1.501,0,2.68,1.179,2.68,2.681v2.68h2.68C707.146,19.822,708.326,21.001,708.326,22.502z"/>
		<path fill="#FE9923" d="M708.326,22.502c0,1.501-1.18,2.68-2.68,2.68h-2.681v2.681c0,1.501-1.179,2.681-2.68,2.681V14.461
			c1.501,0,2.68,1.179,2.68,2.68v2.68h2.681C707.146,19.822,708.326,21.001,708.326,22.502z"/>
	</g>
</g>
</svg>
