<?xml version="1.0" encoding="utf-8"?>
<!-- Generator: Adobe Illustrator 16.0.3, SVG Export Plug-In . SVG Version: 6.00 Build 0)  -->
<!DOCTYPE svg PUBLIC "-//W3C//DTD SVG 1.1//EN" "http://www.w3.org/Graphics/SVG/1.1/DTD/svg11.dtd">
<svg version="1.1" id="Layer_1" xmlns="http://www.w3.org/2000/svg" xmlns:xlink="http://www.w3.org/1999/xlink" x="0px" y="0px"
	 width="112px" height="119.016px" viewBox="526.475 0 112 119.016" enable-background="new 526.475 0 112 119.016"
	 xml:space="preserve">
<g>
	<g>
		<g>
			<g>
				<path fill="#808080" d="M616.451,75.425c-11.939,13.029-46.582,29.596-59.611,17.646c-13.006-11.929,0.539-47.866,12.49-60.895
					c11.939-13.007,32.174-13.892,45.191-1.941C627.529,42.184,628.402,62.418,616.451,75.425z"/>
			</g>
			<g opacity="0.7">
				<path fill="#656565" d="M629.805,73.915c-4.281,16.459-29.391,24.181-56.105,17.257c-26.717-6.946-44.922-25.885-40.652-42.344
					c4.271-16.458,29.391-24.181,56.107-17.257C615.881,38.517,634.064,57.477,629.805,73.915z"/>
			</g>
			<g opacity="0.7">
				<path fill="#656565" d="M626.332,58.556c-2.783-0.582-7.918-3.99-7.334-6.773c0.57-2.783,6.654-3.883,9.438-3.3
					c2.771,0.583,4.551,3.3,3.979,6.083C631.844,57.348,629.113,59.138,626.332,58.556z"/>
			</g>
			<g opacity="0.7">
				<path fill="#808080" d="M534.859,72.016c-0.518-2.804,0.734-8.844,3.527-9.361c2.793-0.496,6.072,4.724,6.59,7.528
					c0.496,2.782-1.359,5.457-4.143,5.975C538.041,76.654,535.355,74.8,534.859,72.016z"/>
			</g>
		</g>
		<g opacity="0.5">
			<g>
				<path fill="#858585" d="M552.117,48.655c0,17.667,14.313,53.302,31.979,53.302s31.979-35.635,31.979-53.302
					c0-17.667-14.313-31.99-31.979-31.99S552.117,30.989,552.117,48.655z"/>
			</g>
			<g opacity="0.7">
				<path fill="#656565" d="M543.295,38.517c-7.971,15.013,5.316,37.684,29.682,50.649c24.375,12.942,50.605,11.281,58.586-3.732
					c7.971-15.013-5.316-37.663-29.693-50.626C577.506,21.843,551.275,23.504,543.295,38.517z"/>
			</g>
			<g>
				<path fill="#CBCBCB" d="M531.074,42.658c0,27.568,22.348,49.894,49.914,49.894c27.559,0,49.906-22.326,49.906-49.894
					s-22.348-7.442-49.906-7.442C553.422,35.217,531.074,15.091,531.074,42.658z"/>
			</g>
			<g opacity="0.7">
				<path fill="#656565" d="M556.248,29.522c2.438,1.467,8.531,2.416,9.998-0.021c1.445-2.438-2.299-7.334-4.736-8.801
					c-2.438-1.445-5.598-0.647-7.043,1.79C553.023,24.927,553.811,28.076,556.248,29.522z"/>
			</g>
			<g opacity="0.7">
				<path fill="#858585" d="M614.543,101.31c2.266-1.726,5.447-7.011,3.732-9.275c-1.715-2.266-7.68-0.626-9.934,1.078
					c-2.266,1.726-2.707,4.939-0.992,7.205C609.064,102.583,612.289,103.014,614.543,101.31z"/>
			</g>
		</g>
	</g>
	<path fill="#CC7E00" d="M628.283,58.556c2.006-0.367,3.689-1.877,4.131-3.99c0.443-2.114-0.496-4.185-2.189-5.329
		c0.303-2.179,0.67-4.335,0.67-6.579c0-15.294-6.883-15.898-17.711-13.417c-2.793-2.308-5.846-4.142-9.082-5.371
		c-5.488-4.444-12.391-7.205-20.006-7.205c-7.453,0-14.215,2.653-19.662,6.924c-0.938-1.229-1.996-2.33-2.924-2.89
		c-2.438-1.445-5.598-0.647-7.043,1.79c-1.229,2.049-0.775,4.573,0.842,6.191c-1.111,0.432-2.264,0.798-3.279,1.359
		c-12.662-3.257-20.955-4.142-20.955,12.619c0,3.991,0.594,7.831,1.477,11.562c0.098,3.754,1.307,7.528,3.322,11.217
		c-0.916,2.114-1.314,4.896-1.014,6.579c0.496,2.783,3.182,4.638,5.975,4.142c0.928-0.172,1.705-0.646,2.373-1.229
		c2.697,3.149,5.674,6.04,9.061,8.435c0.711,3.883,2.006,7.355,4.572,9.707c3.809,3.494,9.471,4.508,15.865,3.926
		c3.539,3.063,7.367,4.961,11.391,4.961c4.066,0,7.949-1.941,11.529-5.069c3.742,0.626,7.355,0.949,10.797,0.863
		c0.096,0.906,0.334,1.79,0.928,2.567c1.715,2.265,4.939,2.696,7.193,0.992c1.359-1.036,2.945-3.344,3.711-5.544
		c5.898-2.006,10.666-5.35,13.309-10.333C635.66,77.712,634.064,67.983,628.283,58.556z"/>
	<path fill="#CC7E00" d="M628.283,58.556c2.006-0.367,3.689-1.877,4.131-3.99c0.443-2.114-0.496-4.185-2.189-5.329
		c0.303-2.179,0.67-4.335,0.67-6.579c0-15.294-6.883-15.898-17.711-13.417c-2.793-2.308-5.846-4.142-9.082-5.371
		c-5.488-4.444-12.391-7.205-20.006-7.205c-7.453,0-14.215,2.653-19.662,6.924c-0.938-1.229-1.996-2.33-2.924-2.89
		c-2.438-1.445-5.598-0.647-7.043,1.79c-1.229,2.049-0.775,4.573,0.842,6.191c-1.111,0.432-2.264,0.798-3.279,1.359
		c-12.662-3.257-20.955-4.142-20.955,12.619c0,3.991,0.594,7.831,1.477,11.562c0.098,3.754,1.307,7.528,3.322,11.217
		c-0.916,2.114-1.314,4.896-1.014,6.579c0.496,2.783,3.182,4.638,5.975,4.142c0.928-0.172,1.705-0.646,2.373-1.229
		c2.697,3.149,5.674,6.04,9.061,8.435c0.711,3.883,2.006,7.355,4.572,9.707c3.809,3.494,9.471,4.508,15.865,3.926
		c3.539,3.063,7.367,4.961,11.391,4.961c4.066,0,7.949-1.941,11.529-5.069c3.742,0.626,7.355,0.949,10.797,0.863
		c0.096,0.906,0.334,1.79,0.928,2.567c1.715,2.265,4.939,2.696,7.193,0.992c1.359-1.036,2.945-3.344,3.711-5.544
		c5.898-2.006,10.666-5.35,13.309-10.333C635.66,77.712,634.064,67.983,628.283,58.556z"/>
	<g>
		<path fill="#FFFFFF" d="M583.475,36.441c7.238,0,8.096,0.027,10.955,0.157c2.645,0.122,4.078,0.563,5.035,0.935
			c1.264,0.491,2.166,1.078,3.115,2.028c0.951,0.946,1.537,1.851,2.029,3.118c0.371,0.953,0.813,2.39,0.934,5.031
			c0.131,2.86,0.158,3.718,0.158,10.958c0,7.237-0.027,8.096-0.158,10.952c-0.121,2.643-0.563,4.078-0.934,5.035
			c-0.492,1.266-1.078,2.168-2.029,3.117c-0.949,0.947-1.852,1.537-3.115,2.029c-0.957,0.369-2.391,0.813-5.035,0.934
			c-2.857,0.127-3.717,0.156-10.955,0.156c-7.24,0-8.098-0.029-10.955-0.156c-2.645-0.121-4.078-0.564-5.035-0.934
			c-1.266-0.492-2.168-1.082-3.115-2.029c-0.949-0.949-1.537-1.852-2.029-3.117c-0.371-0.957-0.813-2.393-0.934-5.035
			c-0.131-2.856-0.158-3.715-0.158-10.952c0-7.24,0.027-8.098,0.158-10.958c0.121-2.642,0.563-4.078,0.934-5.031
			c0.492-1.268,1.08-2.172,2.029-3.118c0.947-0.95,1.85-1.537,3.115-2.028c0.957-0.371,2.391-0.813,5.035-0.935
			C575.379,36.469,576.234,36.441,583.475,36.441 M583.475,31.556c-7.361,0-8.287,0.03-11.18,0.162
			c-2.885,0.133-4.855,0.59-6.578,1.262c-1.785,0.691-3.295,1.619-4.803,3.126c-1.506,1.507-2.434,3.02-3.125,4.804
			c-0.674,1.724-1.131,3.693-1.262,6.579c-0.133,2.893-0.164,3.815-0.164,11.18c0,7.362,0.031,8.284,0.164,11.175
			c0.131,2.887,0.588,4.857,1.262,6.582c0.691,1.781,1.619,3.293,3.125,4.801c1.508,1.51,3.018,2.438,4.803,3.129
			c1.723,0.67,3.693,1.129,6.578,1.26c2.893,0.131,3.818,0.162,11.18,0.162c7.363,0,8.285-0.031,11.18-0.162
			c2.885-0.131,4.854-0.59,6.578-1.26c1.785-0.691,3.297-1.619,4.803-3.129c1.506-1.508,2.434-3.02,3.127-4.801
			c0.672-1.725,1.129-3.695,1.26-6.582c0.133-2.891,0.164-3.813,0.164-11.175c0-7.364-0.031-8.287-0.164-11.18
			c-0.131-2.886-0.588-4.855-1.26-6.579c-0.693-1.784-1.621-3.297-3.127-4.804s-3.018-2.435-4.803-3.126
			c-1.725-0.672-3.693-1.129-6.578-1.262C591.76,31.587,590.838,31.556,583.475,31.556"/>
		<path fill="#FFFFFF" d="M583.475,44.746c-7.688,0-13.92,6.233-13.92,13.92c0,7.69,6.232,13.924,13.92,13.924
			c7.689,0,13.922-6.233,13.922-13.924C597.396,50.979,591.164,44.746,583.475,44.746 M583.475,67.705
			c-4.99,0-9.037-4.047-9.037-9.039c0-4.989,4.047-9.035,9.037-9.035s9.037,4.046,9.037,9.035
			C592.512,63.658,588.465,67.705,583.475,67.705"/>
		<path fill="#FFFFFF" d="M601.199,44.195c0,1.797-1.455,3.254-3.252,3.254c-1.799,0-3.254-1.457-3.254-3.254
			c0-1.796,1.455-3.254,3.254-3.254C599.744,40.941,601.199,42.399,601.199,44.195"/>
	</g>
</g>
</svg>
