<?xml version="1.0" encoding="utf-8"?>
<!-- Generator: Adobe Illustrator 16.0.3, SVG Export Plug-In . SVG Version: 6.00 Build 0)  -->
<!DOCTYPE svg PUBLIC "-//W3C//DTD SVG 1.1//EN" "http://www.w3.org/Graphics/SVG/1.1/DTD/svg11.dtd">
<svg version="1.1" id="Layer_1" xmlns="http://www.w3.org/2000/svg" xmlns:xlink="http://www.w3.org/1999/xlink" x="0px" y="0px"
	 width="112px" height="119.016px" viewBox="262.487 0 112 119.016" enable-background="new 262.487 0 112 119.016"
	 xml:space="preserve">
<g>
	<g>
		<g>
			<g>
				<path fill="#00A9FF" d="M352.465,75.424c-11.938,13.03-46.583,29.597-59.612,17.647c-13.007-11.928,0.539-47.879,12.49-60.908
					c11.939-13.008,32.174-13.881,45.192-1.93C363.543,42.173,364.416,62.418,352.465,75.424z"/>
			</g>
			<g opacity="0.7">
				<path fill="#0080EC" d="M365.818,73.914c-4.281,16.462-29.391,24.183-56.108,17.258c-26.715-6.946-44.921-25.887-40.65-42.355
					c4.271-16.459,29.391-24.172,56.108-17.246C351.895,38.505,370.078,57.467,365.818,73.914z"/>
			</g>
			<g opacity="0.7">
				<path fill="#0080EC" d="M362.345,58.545c-2.782-0.582-7.916-3.99-7.334-6.773c0.572-2.782,6.655-3.873,9.439-3.3
					c2.77,0.582,4.55,3.3,3.979,6.083C367.858,57.338,365.127,59.127,362.345,58.545z"/>
			</g>
			<g opacity="0.7">
				<path fill="#00A9FF" d="M270.871,72.016c-0.518-2.806,0.734-8.845,3.526-9.362c2.795-0.496,6.074,4.725,6.591,7.528
					c0.496,2.783-1.358,5.457-4.142,5.976C274.053,76.656,271.367,74.801,270.871,72.016z"/>
			</g>
		</g>
		<g opacity="0.5">
			<g>
				<path fill="#00B2FF" d="M288.129,48.643c0,17.678,14.312,53.315,31.979,53.315c17.667,0,31.979-35.638,31.979-53.315
					c0-17.656-14.313-31.98-31.979-31.98C302.44,16.663,288.129,30.987,288.129,48.643z"/>
			</g>
			<g opacity="0.7">
				<path fill="#0080EC" d="M279.307,38.505c-7.972,15.014,5.316,37.696,29.683,50.663c24.376,12.941,50.606,11.281,58.587-3.733
					c7.971-15.015-5.316-37.675-29.693-50.64C313.519,21.841,287.287,23.503,279.307,38.505z"/>
			</g>
			<g>
				<path fill="#52FFFF" d="M267.085,42.647c0,27.579,22.348,49.904,49.917,49.904c27.559,0,49.906-22.325,49.906-49.904
					c0-27.568-22.348-7.442-49.906-7.442C289.433,35.205,267.085,15.079,267.085,42.647z"/>
			</g>
			<g opacity="0.7">
				<path fill="#0080EC" d="M292.259,29.519c2.438,1.468,8.532,2.416,10-0.02c1.444-2.439-2.299-7.347-4.736-8.801
					c-2.438-1.458-5.598-0.648-7.042,1.788C289.034,24.927,289.821,28.076,292.259,29.519z"/>
			</g>
			<g opacity="0.7">
				<path fill="#00B2FF" d="M350.557,101.311c2.266-1.726,5.446-7.011,3.732-9.276c-1.716-2.264-7.68-0.624-9.936,1.078
					c-2.264,1.726-2.706,4.942-0.991,7.206C345.078,102.585,348.302,103.016,350.557,101.311z"/>
			</g>
		</g>
	</g>
	<g>
		<g>
			<path fill-rule="evenodd" clip-rule="evenodd" fill="#FFFFFF" d="M295.27,74.325c3.451,0.236,6.794-0.282,9.986-1.726
				c1.412-0.604,2.719-1.38,3.991-2.396c-1.51-0.043-2.858-0.387-4.12-1.033c-2.156-1.1-3.657-2.806-4.573-5.092
				c-0.205-0.518-0.205-0.518,0.389-0.496c1.489,0.15,2.61,0.107,3.495-0.215c-0.842-0.303-1.597-0.455-2.266-0.886
				c-3.215-1.77-4.918-4.487-5.177-8.154c-0.055-0.431,0.052-0.474,0.452-0.279c1.145,0.604,2.352,0.884,3.764,1.013
				c-0.614-0.537-1.132-0.992-1.617-1.486c-2.653-2.848-3.311-7.378-1.521-10.853c0.259-0.475,0.346-0.475,0.668-0.087
				c4.466,5.158,10.01,8.264,16.697,9.319c0.69,0.13,1.445,0.152,2.125,0.282c0.485,0.063,0.551-0.152,0.464-0.518
				c-0.69-4.013,1.196-8.005,4.767-10.01c3.625-2.113,8.358-1.446,11.304,1.401c0.345,0.302,0.627,0.389,1.057,0.259
				c1.77-0.408,3.462-1.079,5.048-1.962c0.108-0.066,0.216-0.152,0.41-0.259c-0.712,2.264-2.049,3.926-4.077,5.284
				c1.877-0.173,3.538-0.733,5.177-1.358c0.031,0.236-0.129,0.365-0.216,0.538c-1.133,1.553-2.459,2.934-3.99,4.056
				c-0.303,0.238-0.367,0.432-0.367,0.776c0.13,7.056-2.125,13.288-6.621,18.726c-4.206,4.96-9.568,7.96-15.985,8.996
				c-6.795,1.055-13.181-0.13-19.069-3.711C295.398,74.368,295.322,74.345,295.27,74.325z"/>
		</g>
	</g>
</g>
</svg>
