<?xml version="1.0" encoding="utf-8"?>
<!-- Generator: Adobe Illustrator 16.0.3, SVG Export Plug-In . SVG Version: 6.00 Build 0)  -->
<!DOCTYPE svg PUBLIC "-//W3C//DTD SVG 1.1//EN" "http://www.w3.org/Graphics/SVG/1.1/DTD/svg11.dtd">
<svg version="1.1" id="Layer_1" xmlns="http://www.w3.org/2000/svg" xmlns:xlink="http://www.w3.org/1999/xlink" x="0px" y="0px"
	 width="112px" height="119.016px" viewBox="787.968 0 112 119.016" enable-background="new 787.968 0 112 119.016"
	 xml:space="preserve">
<g>
	<circle fill="#09FAC0" cx="843.968" cy="59.508" r="50.42"/>
	<g>
		<g id="layer1" transform="translate(-30.285719,-31.219343)">
			
				<radialGradient id="path3494_1_" cx="-1236.8021" cy="-154.1735" r="8.8235" gradientTransform="matrix(-1.3004 0 0 -1.5933 -738.5085 -154.7309)" gradientUnits="userSpaceOnUse">
				<stop  offset="0" style="stop-color:#FDDD0B"/>
				<stop  offset="0.6258" style="stop-color:#FDB819"/>
				<stop  offset="1" style="stop-color:#FD9200"/>
			</radialGradient>
			<path id="path3494" fill="url(#path3494_1_)" stroke="#F96700" stroke-width="5" stroke-linecap="round" d="M876.827,78.827
				c-12.35,3.881-14.616,12.462-15.322,20.332c-0.01,3.661,2.693,5.72,5.523,1.473l11.125-19.815L876.827,78.827z"/>
			
				<radialGradient id="path3496_1_" cx="565.0074" cy="-154.1735" r="8.8265" gradientTransform="matrix(1.3004 0 0 -1.5933 162.9383 -154.7309)" gradientUnits="userSpaceOnUse">
				<stop  offset="0" style="stop-color:#FDEE0D"/>
				<stop  offset="0.6258" style="stop-color:#FDC622"/>
				<stop  offset="1" style="stop-color:#FD9200"/>
			</radialGradient>
			<path id="path3496" fill="url(#path3496_1_)" stroke="#F96700" stroke-width="5" stroke-linecap="round" d="M890.674,78.827
				c12.35,3.881,14.616,12.464,15.323,20.332c0.008,3.661-2.695,5.72-5.525,1.473l-11.123-19.815L890.674,78.827z"/>
			
				<radialGradient id="path3486_1_" cx="-1314.7533" cy="-117.1393" r="8.8233" gradientTransform="matrix(-1.3004 0 0 -1.5933 -865.4226 -80.8539)" gradientUnits="userSpaceOnUse">
				<stop  offset="0" style="stop-color:#D3F3FD"/>
				<stop  offset="0.6258" style="stop-color:#66AFDF"/>
				<stop  offset="1" style="stop-color:#1053C3"/>
			</radialGradient>
			<path id="path3486" fill="url(#path3486_1_)" stroke="#417BDB" stroke-width="5" stroke-linecap="round" d="M851.282,93.696
				c-12.35,3.881-14.616,12.462-15.322,20.333c-0.008,3.66,2.693,5.721,5.524,1.473l11.123-19.816L851.282,93.696z"/>
			
				<radialGradient id="path3498_1_" cx="314.9048" cy="-214.3942" r="18.233" gradientTransform="matrix(1.7892 -0.0193 -0.0184 -1.708 316.0238 -249.438)" gradientUnits="userSpaceOnUse">
				<stop  offset="0" style="stop-color:#FDFC83"/>
				<stop  offset="0.525" style="stop-color:#FDC600"/>
				<stop  offset="0.7659" style="stop-color:#FD9801"/>
				<stop  offset="1" style="stop-color:#F6C092"/>
			</radialGradient>
			
				<linearGradient id="path3498_2_" gradientUnits="userSpaceOnUse" x1="638.8814" y1="-503.0446" x2="638.8814" y2="-464.7366" gradientTransform="matrix(1 0 0 -1 244.5137 -389.095)">
				<stop  offset="0" style="stop-color:#C42F00"/>
				<stop  offset="1" style="stop-color:#FD5900"/>
			</linearGradient>
			<path id="path3498" fill="url(#path3498_1_)" stroke="url(#path3498_2_)" stroke-width="5" stroke-linecap="round" d="
				M883.396,112.359c13.188,0,18.099-4.857,17.708-11.07c-0.245-3.905-5.16-23.146-17.708-23.146
				c-12.549,0-17.464,19.241-17.709,23.146C865.297,107.501,870.208,112.359,883.396,112.359z"/>
			
				<radialGradient id="path3448_1_" cx="642.9595" cy="-117.1393" r="8.8252" gradientTransform="matrix(1.3004 0 0 -1.5933 36.0243 -80.8539)" gradientUnits="userSpaceOnUse">
				<stop  offset="0" style="stop-color:#D3F3FD"/>
				<stop  offset="0.6258" style="stop-color:#66AFDF"/>
				<stop  offset="1" style="stop-color:#1053C3"/>
			</radialGradient>
			<path id="path3448" fill="url(#path3448_1_)" stroke="#417BDB" stroke-width="5" stroke-linecap="round" d="M865.131,93.696
				c12.349,3.881,14.615,12.462,15.321,20.333c0.009,3.66-2.693,5.721-5.524,1.473l-11.123-19.816L865.131,93.696z"/>
			
				<linearGradient id="path3500_1_" gradientUnits="userSpaceOnUse" x1="-1518.0966" y1="-460.2902" x2="-1518.0966" y2="-438.6636" gradientTransform="matrix(-1 0 0 -1 -650.37 -357.8763)">
				<stop  offset="0" style="stop-color:#FFFFFF"/>
				<stop  offset="0.5" style="stop-color:#FFFFFF;stop-opacity:0"/>
				<stop  offset="1" style="stop-color:#FFFFFF"/>
			</linearGradient>
			<path id="path3500" fill="url(#path3500_1_)" d="M873.29,80.889c-3.63,4.1-8.952,10.899-8.25,19.151
				c0.197,4.629-2.998,1.066-2.873-0.848C862.45,91.632,866.093,83.41,873.29,80.889z"/>
			
				<radialGradient id="path3222_1_" cx="371.9097" cy="-180.4914" r="18.2327" gradientTransform="matrix(1.7892 -0.0193 -0.0184 -1.708 189.1098 -175.5611)" gradientUnits="userSpaceOnUse">
				<stop  offset="0" style="stop-color:#D3F3FD"/>
				<stop  offset="0.525" style="stop-color:#66AFDF"/>
				<stop  offset="0.7659" style="stop-color:#3079CD"/>
				<stop  offset="1" style="stop-color:#88B1F6"/>
			</radialGradient>
			
				<linearGradient id="path3222_2_" gradientUnits="userSpaceOnUse" x1="740.2505" y1="-444.0368" x2="740.2505" y2="-405.7289" gradientTransform="matrix(1 0 0 -1 117.6001 -315.218)">
				<stop  offset="0" style="stop-color:#4178C8"/>
				<stop  offset="1" style="stop-color:#AA9EFF"/>
			</linearGradient>
			<path id="path3222" fill="url(#path3222_1_)" stroke="url(#path3222_2_)" stroke-width="5" stroke-linecap="round" d="
				M857.851,127.228c13.188,0,18.099-4.855,17.708-11.068c-0.244-3.906-5.159-23.148-17.708-23.148s-17.463,19.242-17.709,23.148
				C839.752,122.372,844.662,127.228,857.851,127.228z"/>
			
				<linearGradient id="path3488_1_" gradientUnits="userSpaceOnUse" x1="-1619.4667" y1="-401.2829" x2="-1619.4667" y2="-379.6546" gradientTransform="matrix(-1 0 0 -1 -777.2841 -283.9973)">
				<stop  offset="0" style="stop-color:#FFFFFF"/>
				<stop  offset="0.5" style="stop-color:#FFFFFF;stop-opacity:0"/>
				<stop  offset="1" style="stop-color:#FFFFFF"/>
			</linearGradient>
			<path id="path3488" fill="url(#path3488_1_)" d="M847.747,95.758c-3.63,4.101-8.952,10.899-8.25,19.153
				c0.196,4.629-2.998,1.068-2.874-0.848C836.905,106.503,840.548,98.281,847.747,95.758z"/>
			
				<radialGradient id="path3502_1_" cx="368.6343" cy="-36.2873" r="11.9433" gradientTransform="matrix(1.6122 0.0074 0.0087 -1.8926 289.659 7.4426)" gradientUnits="userSpaceOnUse">
				<stop  offset="0" style="stop-color:#FDFC9A"/>
				<stop  offset="0.6258" style="stop-color:#FDB700"/>
				<stop  offset="1" style="stop-color:#FD6C00"/>
			</radialGradient>
			
				<linearGradient id="path3502_2_" gradientUnits="userSpaceOnUse" x1="636.6011" y1="-287.5871" x2="636.6011" y2="-313.9975" gradientTransform="matrix(1.1761 0 0 -1.1761 134.9514 -287.2155)">
				<stop  offset="0" style="stop-color:#FD6C00"/>
				<stop  offset="1" style="stop-color:#C42F00"/>
			</linearGradient>
			<path id="path3502" fill="url(#path3502_1_)" stroke="url(#path3502_2_)" stroke-width="4.2513" stroke-linecap="round" d="
				M897.101,67.072c0.003,7.425-6.015,13.444-13.438,13.447c-7.425,0.003-13.444-6.014-13.447-13.438c0-0.003,0-0.006,0-0.01
				c-0.004-7.425,6.013-13.443,13.437-13.447c7.425-0.003,13.445,6.015,13.448,13.437C897.101,67.065,897.101,67.069,897.101,67.072
				z"/>
			
				<radialGradient id="path2450_1_" cx="431.3414" cy="-4.8649" r="11.9432" gradientTransform="matrix(1.6122 0.0074 0.0087 -1.8926 162.7449 81.3195)" gradientUnits="userSpaceOnUse">
				<stop  offset="0" style="stop-color:#D3F3FD"/>
				<stop  offset="0.6258" style="stop-color:#66AFDF"/>
				<stop  offset="1" style="stop-color:#1053C3"/>
			</radialGradient>
			
				<linearGradient id="path2450_2_" gradientUnits="userSpaceOnUse" x1="722.7925" y1="-237.4152" x2="722.7925" y2="-263.8251" gradientTransform="matrix(1.1761 0 0 -1.1761 8.0374 -213.3385)">
				<stop  offset="0" style="stop-color:#1053C3"/>
				<stop  offset="1" style="stop-color:#95B9F7"/>
			</linearGradient>
			<path id="path2450" fill="url(#path2450_1_)" stroke="url(#path2450_2_)" stroke-width="4.2513" stroke-linecap="round" d="
				M871.556,81.942c0.002,7.424-6.015,13.444-13.438,13.447s-13.445-6.015-13.447-13.438c0-0.003,0-0.007,0-0.01
				c-0.003-7.426,6.013-13.445,13.438-13.448c7.424-0.003,13.443,6.015,13.447,13.438C871.556,81.935,871.556,81.938,871.556,81.942
				z"/>
			
				<linearGradient id="path3504_1_" gradientUnits="userSpaceOnUse" x1="930.9537" y1="-985.1637" x2="930.9537" y2="-1008.7319" gradientTransform="matrix(0.9079 0 0 -0.6267 38.4456 -563.3009)">
				<stop  offset="0" style="stop-color:#FFFFFF"/>
				<stop  offset="1" style="stop-color:#FFFFFF;stop-opacity:0"/>
			</linearGradient>
			<path id="path3504" fill="url(#path3504_1_)" d="M894.036,61.483c0.002,3.955-4.642,7.164-10.374,7.164
				c-5.73,0.002-10.378-3.204-10.38-7.16c0-0.001,0-0.003,0-0.005c-0.002-3.955,4.642-7.164,10.373-7.165
				c5.73-0.001,10.378,3.204,10.381,7.159C894.036,61.479,894.036,61.481,894.036,61.483z"/>
			
				<linearGradient id="path3408_1_" gradientUnits="userSpaceOnUse" x1="1042.6051" y1="-891.0055" x2="1042.6051" y2="-914.5733" gradientTransform="matrix(0.9079 0 0 -0.6267 -88.4685 -489.424)">
				<stop  offset="0" style="stop-color:#FFFFFF"/>
				<stop  offset="1" style="stop-color:#FFFFFF;stop-opacity:0"/>
			</linearGradient>
			<path id="path3408" fill="url(#path3408_1_)" d="M868.49,76.352c0.003,3.956-4.642,7.164-10.373,7.165
				c-5.731,0.002-10.379-3.203-10.381-7.16c0-0.001,0-0.004,0-0.005c-0.002-3.955,4.643-7.164,10.374-7.164
				c5.729-0.002,10.378,3.203,10.38,7.159C868.49,76.349,868.49,76.351,868.49,76.352z"/>
			
				<linearGradient id="path3506_1_" gradientUnits="userSpaceOnUse" x1="824.9752" y1="-460.2902" x2="824.9752" y2="-438.6636" gradientTransform="matrix(1 0 0 -1 74.7993 -357.8763)">
				<stop  offset="0" style="stop-color:#FFFFFF"/>
				<stop  offset="0.5" style="stop-color:#FFFFFF;stop-opacity:0"/>
				<stop  offset="1" style="stop-color:#FFFFFF"/>
			</linearGradient>
			<path id="path3506" fill="url(#path3506_1_)" d="M894.211,80.889c3.631,4.1,8.951,10.899,8.251,19.151
				c-0.197,4.629,2.997,1.066,2.872-0.848C905.05,91.632,901.409,83.41,894.211,80.889z"/>
			
				<linearGradient id="path3458_1_" gradientUnits="userSpaceOnUse" x1="926.3443" y1="-401.2829" x2="926.3443" y2="-379.6546" gradientTransform="matrix(1 0 0 -1 -52.1143 -283.9973)">
				<stop  offset="0" style="stop-color:#FFFFFF"/>
				<stop  offset="0.5" style="stop-color:#FFFFFF;stop-opacity:0"/>
				<stop  offset="1" style="stop-color:#FFFFFF"/>
			</linearGradient>
			<path id="path3458" fill="url(#path3458_1_)" d="M868.667,95.758c3.63,4.101,8.952,10.899,8.25,19.153
				c-0.196,4.629,2.997,1.068,2.872-0.848C879.507,106.503,875.864,98.281,868.667,95.758z"/>
			
				<radialGradient id="path3668_1_" cx="436.6129" cy="-1207.6544" r="30.2667" gradientTransform="matrix(1.0019 -0.8143 -0.575 -0.7075 -255.4121 -377.1048)" gradientUnits="userSpaceOnUse">
				<stop  offset="0" style="stop-color:#57BE00"/>
				<stop  offset="1" style="stop-color:#006200"/>
			</radialGradient>
			<path id="path3668" fill="url(#path3668_1_)" d="M912.478,91.56v3.94l-34.971,31.651c-0.948,0.947-1.806,0.84-2.607,0.07
				l-21.973-19.527c-1.262-1.588-0.459-3.49-0.781-5.313l24.273,8.855L912.478,91.56z"/>
			
				<radialGradient id="path3654_1_" cx="1231.9703" cy="-544.5309" r="30.3473" gradientTransform="matrix(1 0 0 -0.8753 -345.8379 -364.6336)" gradientUnits="userSpaceOnUse">
				<stop  offset="0" style="stop-color:#CAF899"/>
				<stop  offset="1" style="stop-color:#1DA100"/>
			</radialGradient>
			<path id="path3654" fill="url(#path3654_1_)" d="M876.315,104.05l24.378-21.774c0.648-0.562,1.357-0.902,2.396-0.104l8.887,7.961
				c0.801,0.974,0.737,1.681-0.032,2.457l-35.61,32.607l-23.666-21.355c-0.91-1.074-0.656-1.814-0.209-2.5l9.168-8.127
				c0.526-0.646,1.167-0.943,2.083-0.416L876.315,104.05z"/>
			
				<linearGradient id="path3650_1_" gradientUnits="userSpaceOnUse" x1="918.6509" y1="-393.7282" x2="918.6509" y2="-369.2673" gradientTransform="matrix(1 0 0 -1 -35.5518 -283.9973)">
				<stop  offset="0" style="stop-color:#FFFFFF;stop-opacity:0"/>
				<stop  offset="1" style="stop-color:#FFFFFF"/>
			</linearGradient>
			<path id="path3650" fill="url(#path3650_1_)" d="M862.743,93.231l13.525,11.644l25.511-22.301l10.009,8.644l-13.445,12.067
				c-12.551,9.152-35.858,5.127-43.932-2.833L862.743,93.231z"/>
			
				<radialGradient id="path3652_1_" cx="24.4039" cy="-1274.8156" r="32.9823" gradientTransform="matrix(1.1053 -0.9758 -0.5825 -0.6599 106.7025 -691.2463)" gradientUnits="userSpaceOnUse">
				<stop  offset="0" style="stop-color:#FFFFFF;stop-opacity:0.7304"/>
				<stop  offset="1" style="stop-color:#FFFFFF;stop-opacity:0"/>
			</radialGradient>
			
				<path id="path3652" fill="none" stroke="url(#path3652_1_)" stroke-width="5" stroke-linecap="round" stroke-linejoin="round" d="
				M852.564,103.007l23.752,21.461l35.523-32.19"/>
		</g>
		<g>
			<path d="M827.566,57.364c-3.197,0-5.994-1.639-7.523-4.191c1.063,3.515,4.029,6.045,7.523,6.045c3.492,0,6.459-2.53,7.521-6.045
				C833.559,55.725,830.763,57.364,827.566,57.364z"/>
			<path fill="#DC0000" d="M822.735,52.258c0.481-0.021,1.036-0.889,1.805-1.566c0.842-0.743,2.318-1.458,2.318-2.997
				c0-2.441-3.096-3.288-4.132-0.877c-1.036-2.411-4.133-1.564-4.133,0.877c0,1.539,1.478,2.256,2.32,2.997
				c0.768,0.678,1.321,1.546,1.805,1.566H822.735z"/>
			<path fill="#DC0000" d="M832.413,52.258c0.481-0.021,1.036-0.889,1.804-1.566c0.844-0.743,2.319-1.458,2.319-2.997
				c0-2.441-3.095-3.288-4.132-0.877c-1.036-2.411-4.132-1.564-4.132,0.877c0,1.539,1.476,2.256,2.318,2.997
				c0.769,0.678,1.322,1.546,1.805,1.566H832.413z"/>
		</g>
		<g>
			<path d="M853.372,42.342c-3.196,0-5.992-1.64-7.521-4.191c1.062,3.514,4.027,6.045,7.521,6.045s6.46-2.531,7.522-6.045
				C859.365,40.702,856.569,42.342,853.372,42.342z"/>
			<path fill="#DC0000" d="M848.542,37.234c0.482-0.021,1.037-0.889,1.805-1.566c0.842-0.742,2.319-1.458,2.319-2.997
				c0-2.441-3.096-3.288-4.133-0.877c-1.036-2.411-4.132-1.564-4.132,0.877c0,1.539,1.477,2.256,2.318,2.997
				c0.769,0.678,1.324,1.546,1.806,1.566H848.542z"/>
			<path fill="#DC0000" d="M858.22,37.234c0.481-0.021,1.036-0.889,1.805-1.566c0.842-0.742,2.319-1.458,2.319-2.997
				c0-2.441-3.096-3.288-4.132-0.877c-1.037-2.411-4.133-1.564-4.133,0.877c0,1.539,1.479,2.256,2.319,2.997
				c0.769,0.678,1.322,1.546,1.804,1.566H858.22z"/>
		</g>
	</g>
</g>
</svg>
